# File created by Blade
# Date/Time:  Wed Sep 24 20:15:16 2014
# Frame Rate: 120.000 fps
#------------------------------------------------------
:FULLY-SPECIFIED
:DEGREES
4405
root -5.724957 32.705695 -4.357585 15.421528 -15.587667 -3.680815
Spine -23.837185 -6.826520 10.171172
Head 14.865847 4.111934 5.100204
LeftShoulder -8.373940 21.929156 9.324012
LeftArm 18.673731 17.967721 -77.966312
LeftForeArm -3.238988 -0.000000 21.327869
LeftHand -22.327886 -0.000000 -0.960956
LeftHandThumb1 -26.253704 0.000000 33.147579
RightShoulder -25.542984 10.693135 -14.722174
RightArm -48.202797 52.949621 45.813584
RightForeArm 43.444889 -0.000000 125.433414
RightHand -10.201285 -0.000000 -57.801958
RightHandThumb1 -24.326973 -0.000000 -32.862282
LeftUpLeg -7.830507 15.415622 2.638024
LeftLeg 1.144549 -0.000000 -0.000000
LeftFoot -18.474701 15.225662 -20.094387
LeftToeBase 10.036138 -0.000000 -0.000000
RightUpLeg -14.194523 2.996357 -3.153223
RightLeg 3.313149 -0.000000 -0.000000
RightFoot -9.208854 6.098310 -13.045496
RightToeBase -2.078705 -0.000000 0.000000
4406
root -5.726720 32.705271 -4.353850 15.407855 -15.614354 -3.687419
Spine -23.848957 -6.763062 10.150804
Head 14.907285 4.108538 5.092280
LeftShoulder -8.347063 21.895183 9.343615
LeftArm 18.761237 17.938802 -77.964281
LeftForeArm -2.980309 -0.000000 21.456321
LeftHand -22.239043 -0.000000 -1.341495
LeftHandThumb1 -26.253704 0.000000 33.147579
RightShoulder -25.480283 10.676633 -14.694981
RightArm -48.132832 52.883554 45.868286
RightForeArm 43.726923 -0.000000 125.432860
RightHand -10.185769 -0.000000 -57.798439
RightHandThumb1 -24.326973 -0.000000 -32.862282
LeftUpLeg -7.810137 15.426935 2.646309
LeftLeg 1.162941 -0.000000 -0.000000
LeftFoot -18.500322 15.241013 -20.101873
LeftToeBase 10.065989 -0.000000 -0.000000
RightUpLeg -14.173978 2.992477 -3.145141
RightLeg 3.307215 -0.000000 -0.000000
RightFoot -9.207669 6.137481 -13.059040
RightToeBase -2.095730 -0.000000 0.000000
4407
root -5.728657 32.704608 -4.350184 15.396017 -15.633484 -3.686951
Spine -23.861720 -6.687824 10.107663
Head 14.937312 4.096084 5.107667
LeftShoulder -8.321979 21.826084 9.353268
LeftArm 18.840773 17.971964 -77.920575
LeftForeArm -2.975244 -0.000000 21.581676
LeftHand -22.463791 -0.000000 -0.805087
LeftHandThumb1 -26.253704 0.000000 33.147579
RightShoulder -25.445567 10.663153 -14.657318
RightArm -48.060347 52.842052 45.911326
RightForeArm 44.149756 -0.000000 125.492558
RightHand -10.328376 0.000000 -57.989883
RightHandThumb1 -24.326973 -0.000000 -32.862282
LeftUpLeg -7.802546 15.446992 2.648922
LeftLeg 1.195687 -0.000000 -0.000000
LeftFoot -18.530511 15.215595 -20.123084
LeftToeBase 10.104302 -0.000000 -0.000000
RightUpLeg -14.157312 2.980242 -3.139551
RightLeg 3.306963 -0.000000 -0.000000
RightFoot -9.230823 6.151636 -13.080167
RightToeBase -2.106720 -0.000000 0.000000
4408
root -5.730428 32.703881 -4.346426 15.385690 -15.653017 -3.685318
Spine -23.878531 -6.611346 10.072508
Head 14.968474 4.109667 5.113006
LeftShoulder -8.301205 21.765528 9.363218
LeftArm 18.895982 17.986473 -77.904996
LeftForeArm -2.895815 -0.000000 21.683823
LeftHand -22.405688 -0.000000 -0.649540
LeftHandThumb1 -26.253704 0.000000 33.147579
RightShoulder -25.422969 10.640866 -14.652338
RightArm -47.997939 52.838694 45.967549
RightForeArm 44.536105 -0.000000 125.444850
RightHand -10.283225 -0.000000 -57.614895
RightHandThumb1 -24.326973 -0.000000 -32.862282
LeftUpLeg -7.786989 15.401095 2.658238
LeftLeg 1.215833 -0.000000 -0.000000
LeftFoot -18.554655 15.266593 -20.129676
LeftToeBase 10.066236 -0.000000 -0.000000
RightUpLeg -14.135697 2.957833 -3.134576
RightLeg 3.291011 -0.000000 -0.000000
RightFoot -9.244419 6.187596 -13.119242
RightToeBase -2.131495 -0.000000 0.000000
4409
root -5.730555 32.702975 -4.342624 15.368290 -15.671525 -3.670757
Spine -23.888870 -6.527347 10.020799
Head 15.006727 4.131325 5.108519
LeftShoulder -8.301865 21.727533 9.351385
LeftArm 18.972918 18.062222 -77.848142
LeftForeArm -2.763039 0.000000 21.816428
LeftHand -22.494038 -0.000000 -0.673422
LeftHandThumb1 -26.253704 0.000000 33.147579
RightShoulder -25.424257 10.645690 -14.650464
RightArm -47.858576 52.785940 46.107013
RightForeArm 44.632603 -0.000000 125.466970
RightHand -10.253762 -0.000000 -58.051243
RightHandThumb1 -24.326973 -0.000000 -32.862282
LeftUpLeg -7.771392 15.333877 2.655902
LeftLeg 1.239375 -0.000000 -0.000000
LeftFoot -18.633401 15.271156 -20.314114
LeftToeBase 10.067178 -0.000000 -0.000000
RightUpLeg -14.109648 2.922005 -3.140325
RightLeg 3.274278 -0.000000 -0.000000
RightFoot -9.265844 6.217159 -13.158501
RightToeBase -2.103407 -0.000000 0.000000
4410
root -5.732643 32.702565 -4.339080 15.368797 -15.681136 -3.669427
Spine -23.927829 -6.449787 9.986521
Head 15.069775 4.188247 5.120624
LeftShoulder -8.288907 21.725400 9.344469
LeftArm 19.037818 17.989066 -77.863414
LeftForeArm -2.576524 0.000000 21.892140
LeftHand -22.340737 -0.000000 -0.638279
LeftHandThumb1 -26.253704 0.000000 33.147579
RightShoulder -25.424823 10.642281 -14.658461
RightArm -47.691673 52.737873 46.304337
RightForeArm 44.585529 0.000000 125.522135
RightHand -10.224857 -0.000000 -58.406522
RightHandThumb1 -24.326973 -0.000000 -32.862282
LeftUpLeg -7.766897 15.260922 2.667718
LeftLeg 1.257000 -0.000000 -0.000000
LeftFoot -18.685241 15.324921 -20.358433
LeftToeBase 10.140274 -0.000000 -0.000000
RightUpLeg -14.080077 2.914293 -3.139756
RightLeg 3.222781 -0.000000 -0.000000
RightFoot -9.250083 6.249874 -13.151057
RightToeBase -2.138741 -0.000000 0.000000
4411
root -5.730626 32.701913 -4.333628 15.345913 -15.711421 -3.643523
Spine -23.938598 -6.351184 9.929976
Head 15.131649 4.269854 5.110905
LeftShoulder -8.277744 21.702452 9.310568
LeftArm 19.076424 17.962195 -77.848780
LeftForeArm -2.499476 0.000000 21.994527
LeftHand -22.465892 -0.000000 -0.331005
LeftHandThumb1 -26.253704 0.000000 33.147579
RightShoulder -25.422893 10.648961 -14.655534
RightArm -47.615082 52.709173 46.383469
RightForeArm 44.480480 0.000000 125.533250
RightHand -10.113375 0.000000 -58.565931
RightHandThumb1 -24.326973 -0.000000 -32.862282
LeftUpLeg -7.751321 15.227600 2.646244
LeftLeg 1.297599 -0.000000 -0.000000
LeftFoot -18.706409 15.399417 -20.307779
LeftToeBase 10.162618 -0.000000 -0.000000
RightUpLeg -14.043931 2.905850 -3.171546
RightLeg 3.189915 -0.000000 -0.000000
RightFoot -9.265578 6.283781 -13.147815
RightToeBase -2.109836 -0.000000 0.000000
